<svg width="20" height="25" viewBox="0 0 20 25" fill="none" xmlns="http://www.w3.org/2000/svg">
<path d="M9.52832 15.834C9.99023 15.834 10.3877 15.4473 10.3877 14.9961V3.96387L10.3232 2.35254L11.043 3.11523L12.6758 4.85547C12.8262 5.02734 13.041 5.11328 13.2559 5.11328C13.6963 5.11328 14.04 4.79102 14.04 4.35059C14.04 4.125 13.9434 3.95312 13.7822 3.79199L10.1514 0.290039C9.93652 0.0751953 9.75391 0 9.52832 0C9.31348 0 9.13086 0.0751953 8.90527 0.290039L5.27441 3.79199C5.11328 3.95312 5.02734 4.125 5.02734 4.35059C5.02734 4.79102 5.34961 5.11328 5.80078 5.11328C6.00488 5.11328 6.24121 5.02734 6.3916 4.85547L8.01367 3.11523L8.74414 2.35254L8.67969 3.96387V14.9961C8.67969 15.4473 9.06641 15.834 9.52832 15.834ZM3.37305 24.2451H15.6943C17.9395 24.2451 19.0674 23.1279 19.0674 20.915V10.1943C19.0674 7.98145 17.9395 6.86426 15.6943 6.86426H12.6973V8.59375H15.6621C16.7256 8.59375 17.3379 9.17383 17.3379 10.291V20.8184C17.3379 21.9355 16.7256 22.5156 15.6621 22.5156H3.39453C2.32031 22.5156 1.72949 21.9355 1.72949 20.8184V10.291C1.72949 9.17383 2.32031 8.59375 3.39453 8.59375H6.37012V6.86426H3.37305C1.12793 6.86426 0 7.98145 0 10.1943V20.915C0 23.1279 1.12793 24.2451 3.37305 24.2451Z" fill="#8F9195"/>
</svg>
